<svg xmlns="http://www.w3.org/2000/svg" width="1920" height="1080" viewBox="0 0 1920 1080">
  <rect width="1920" height="1080" fill="#0a0f2e"/>
  <circle cx="341.3" cy="330.3" r="0.6" fill="white" opacity="0.40"/>
  <circle cx="1194.1" cy="544.0" r="0.9" fill="white" opacity="0.69"/>
  <circle cx="606.1" cy="393.5" r="1.5" fill="white" opacity="0.55"/>
  <circle cx="733.8" cy="705.4" r="1.8" fill="white" opacity="0.88"/>
  <circle cx="126.5" cy="280.5" r="1.9" fill="white" opacity="0.43"/>
  <circle cx="304.3" cy="1053.3" r="1.2" fill="white" opacity="0.39"/>
  <circle cx="1296.2" cy="456.5" r="1.0" fill="white" opacity="0.56"/>
  <circle cx="882.7" cy="939.4" r="1.8" fill="white" opacity="0.71"/>
  <circle cx="1004.4" cy="230.8" r="1.6" fill="white" opacity="0.64"/>
  <circle cx="1696.2" cy="864.6" r="1.0" fill="white" opacity="0.63"/>
  <circle cx="863.4" cy="646.2" r="1.4" fill="white" opacity="0.91"/>
  <circle cx="1431.4" cy="103.0" r="0.8" fill="white" opacity="0.88"/>
  <circle cx="896.0" cy="79.0" r="1.3" fill="white" opacity="0.37"/>
  <circle cx="445.0" cy="1013.8" r="1.8" fill="white" opacity="0.45"/>
  <circle cx="1714.1" cy="782.5" r="0.6" fill="white" opacity="0.80"/>
  <circle cx="1436.5" cy="639.4" r="1.3" fill="white" opacity="0.94"/>
  <circle cx="1731.1" cy="723.6" r="1.6" fill="white" opacity="0.36"/>
  <circle cx="952.6" cy="389.6" r="2.0" fill="white" opacity="0.63"/>
  <circle cx="347.9" cy="830.5" r="1.8" fill="white" opacity="0.72"/>
  <circle cx="1663.5" cy="157.0" r="1.3" fill="white" opacity="0.33"/>
  <circle cx="1608.9" cy="436.9" r="1.1" fill="white" opacity="0.45"/>
  <circle cx="478.8" cy="904.5" r="0.7" fill="white" opacity="0.82"/>
  <circle cx="1286.9" cy="249.9" r="1.9" fill="white" opacity="0.97"/>
  <circle cx="934.4" cy="973.9" r="1.8" fill="white" opacity="0.94"/>
  <circle cx="888.9" cy="783.8" r="1.6" fill="white" opacity="0.96"/>
  <circle cx="1493.6" cy="182.5" r="1.8" fill="white" opacity="0.33"/>
  <circle cx="180.1" cy="339.8" r="1.3" fill="white" opacity="0.65"/>
  <circle cx="1592.4" cy="70.2" r="1.5" fill="white" opacity="0.73"/>
  <circle cx="275.8" cy="224.7" r="1.0" fill="white" opacity="0.34"/>
  <circle cx="1709.9" cy="684.3" r="1.6" fill="white" opacity="0.49"/>
  <circle cx="1172.1" cy="84.6" r="1.3" fill="white" opacity="0.42"/>
  <circle cx="751.5" cy="564.4" r="0.8" fill="white" opacity="0.77"/>
  <circle cx="1432.7" cy="505.1" r="1.8" fill="white" opacity="0.59"/>
  <circle cx="1162.2" cy="649.6" r="1.6" fill="white" opacity="0.46"/>
  <circle cx="1775.8" cy="655.2" r="0.8" fill="white" opacity="0.95"/>
  <circle cx="330.5" cy="125.6" r="0.6" fill="white" opacity="0.53"/>
  <circle cx="748.2" cy="1074.4" r="1.5" fill="white" opacity="0.44"/>
  <circle cx="737.4" cy="603.0" r="0.7" fill="white" opacity="0.73"/>
  <circle cx="672.1" cy="1029.5" r="1.5" fill="white" opacity="0.42"/>
  <circle cx="714.6" cy="642.5" r="1.9" fill="white" opacity="0.56"/>
  <circle cx="902.8" cy="918.3" r="0.5" fill="white" opacity="0.45"/>
  <circle cx="1626.0" cy="792.9" r="2.0" fill="white" opacity="0.98"/>
  <circle cx="1094.5" cy="316.8" r="1.3" fill="white" opacity="0.98"/>
  <circle cx="334.4" cy="588.9" r="1.6" fill="white" opacity="0.48"/>
  <circle cx="22.3" cy="242.0" r="0.6" fill="white" opacity="0.60"/>
  <circle cx="1868.8" cy="303.3" r="1.1" fill="white" opacity="0.79"/>
  <circle cx="1034.0" cy="111.1" r="1.5" fill="white" opacity="0.68"/>
  <circle cx="1748.6" cy="712.0" r="1.1" fill="white" opacity="0.77"/>
  <circle cx="723.5" cy="1021.7" r="1.9" fill="white" opacity="0.89"/>
  <circle cx="1139.6" cy="693.7" r="1.6" fill="white" opacity="0.51"/>
  <circle cx="654.8" cy="496.0" r="1.2" fill="white" opacity="0.77"/>
  <circle cx="494.4" cy="109.7" r="1.1" fill="white" opacity="0.66"/>
  <circle cx="630.0" cy="863.1" r="0.8" fill="white" opacity="0.92"/>
  <circle cx="1725.7" cy="211.2" r="1.1" fill="white" opacity="1.00"/>
  <circle cx="482.3" cy="417.7" r="1.5" fill="white" opacity="0.88"/>
  <circle cx="351.0" cy="2.9" r="1.4" fill="white" opacity="0.31"/>
  <circle cx="805.8" cy="600.7" r="0.9" fill="white" opacity="0.85"/>
  <circle cx="1801.2" cy="160.4" r="1.6" fill="white" opacity="0.59"/>
  <circle cx="1262.7" cy="497.8" r="2.0" fill="white" opacity="0.75"/>
  <circle cx="44.1" cy="1002.4" r="2.0" fill="white" opacity="0.31"/>
  <circle cx="328.9" cy="307.6" r="1.4" fill="white" opacity="0.53"/>
  <circle cx="903.0" cy="716.0" r="0.7" fill="white" opacity="0.47"/>
  <circle cx="753.9" cy="951.5" r="1.8" fill="white" opacity="0.65"/>
  <circle cx="661.1" cy="182.1" r="1.9" fill="white" opacity="0.97"/>
  <circle cx="646.0" cy="799.1" r="1.4" fill="white" opacity="0.53"/>
  <circle cx="138.5" cy="405.1" r="1.1" fill="white" opacity="0.51"/>
  <circle cx="1850.1" cy="849.3" r="1.3" fill="white" opacity="0.43"/>
  <circle cx="1036.1" cy="498.8" r="1.6" fill="white" opacity="0.46"/>
  <circle cx="8.7" cy="1020.3" r="1.5" fill="white" opacity="0.63"/>
  <circle cx="811.7" cy="369.0" r="0.8" fill="white" opacity="0.38"/>
  <circle cx="1867.1" cy="947.6" r="0.9" fill="white" opacity="0.72"/>
  <circle cx="29.4" cy="517.0" r="1.3" fill="white" opacity="0.55"/>
  <circle cx="1232.7" cy="255.1" r="2.0" fill="white" opacity="0.57"/>
  <circle cx="1675.7" cy="157.1" r="0.8" fill="white" opacity="0.86"/>
  <circle cx="1324.4" cy="339.7" r="1.2" fill="white" opacity="0.96"/>
  <circle cx="155.4" cy="641.7" r="1.5" fill="white" opacity="0.91"/>
  <circle cx="1293.0" cy="856.4" r="1.4" fill="white" opacity="0.73"/>
  <circle cx="307.8" cy="457.0" r="0.5" fill="white" opacity="0.59"/>
  <circle cx="548.2" cy="759.3" r="0.9" fill="white" opacity="0.96"/>
  <circle cx="221.5" cy="688.8" r="1.6" fill="white" opacity="0.82"/>
  <circle cx="1125.6" cy="695.3" r="1.4" fill="white" opacity="0.70"/>
  <circle cx="262.1" cy="433.0" r="1.7" fill="white" opacity="0.98"/>
  <circle cx="539.0" cy="694.0" r="1.5" fill="white" opacity="0.33"/>
  <circle cx="91.3" cy="445.0" r="0.6" fill="white" opacity="0.55"/>
  <circle cx="136.2" cy="26.4" r="1.8" fill="white" opacity="0.47"/>
  <circle cx="1221.8" cy="500.0" r="1.2" fill="white" opacity="0.88"/>
  <circle cx="1565.2" cy="1015.1" r="1.3" fill="white" opacity="0.85"/>
  <circle cx="1653.5" cy="555.7" r="1.7" fill="white" opacity="0.35"/>
  <circle cx="1757.0" cy="212.3" r="1.8" fill="white" opacity="0.60"/>
  <circle cx="941.7" cy="1000.0" r="1.1" fill="white" opacity="0.93"/>
  <circle cx="541.9" cy="799.5" r="0.7" fill="white" opacity="0.58"/>
  <circle cx="583.9" cy="405.0" r="1.3" fill="white" opacity="0.80"/>
  <circle cx="1260.9" cy="464.1" r="0.7" fill="white" opacity="0.56"/>
  <circle cx="969.0" cy="550.9" r="1.1" fill="white" opacity="0.41"/>
  <circle cx="900.8" cy="927.3" r="0.8" fill="white" opacity="0.97"/>
  <circle cx="1024.9" cy="1054.7" r="1.6" fill="white" opacity="0.93"/>
  <circle cx="158.9" cy="1061.7" r="1.4" fill="white" opacity="0.89"/>
  <circle cx="1746.4" cy="433.5" r="1.5" fill="white" opacity="0.36"/>
  <circle cx="509.4" cy="829.7" r="0.6" fill="white" opacity="0.51"/>
  <circle cx="1482.0" cy="883.5" r="1.3" fill="white" opacity="0.50"/>
  <circle cx="703.4" cy="511.5" r="1.6" fill="white" opacity="0.85"/>
  <circle cx="190.7" cy="750.1" r="1.2" fill="white" opacity="0.51"/>
  <circle cx="1726.6" cy="792.0" r="1.3" fill="white" opacity="0.96"/>
  <circle cx="27.5" cy="1030.8" r="1.0" fill="white" opacity="0.88"/>
  <circle cx="1182.5" cy="545.2" r="1.7" fill="white" opacity="0.99"/>
  <circle cx="448.7" cy="100.4" r="0.8" fill="white" opacity="0.78"/>
  <circle cx="1359.5" cy="842.6" r="0.8" fill="white" opacity="0.33"/>
  <circle cx="997.6" cy="306.6" r="0.8" fill="white" opacity="0.73"/>
  <circle cx="1660.7" cy="856.5" r="1.8" fill="white" opacity="0.53"/>
  <circle cx="19.4" cy="71.3" r="1.1" fill="white" opacity="0.38"/>
  <circle cx="187.5" cy="647.6" r="1.7" fill="white" opacity="0.35"/>
  <circle cx="936.6" cy="48.9" r="1.9" fill="white" opacity="0.99"/>
  <circle cx="1162.7" cy="232.7" r="0.6" fill="white" opacity="0.34"/>
  <circle cx="691.1" cy="282.8" r="1.1" fill="white" opacity="0.95"/>
  <circle cx="96.1" cy="1041.0" r="1.8" fill="white" opacity="0.71"/>
  <circle cx="55.5" cy="663.6" r="0.8" fill="white" opacity="0.90"/>
  <circle cx="1346.2" cy="426.1" r="1.4" fill="white" opacity="0.48"/>
  <circle cx="1291.0" cy="602.0" r="1.3" fill="white" opacity="0.84"/>
  <circle cx="1094.5" cy="905.7" r="1.2" fill="white" opacity="0.93"/>
  <circle cx="1264.2" cy="285.2" r="1.1" fill="white" opacity="0.51"/>
  <circle cx="532.5" cy="966.2" r="1.2" fill="white" opacity="0.57"/>
  <circle cx="1868.3" cy="1079.4" r="1.6" fill="white" opacity="0.60"/>
  <circle cx="512.2" cy="354.0" r="1.3" fill="white" opacity="0.63"/>
  <circle cx="1728.3" cy="814.2" r="0.6" fill="white" opacity="0.37"/>
  <circle cx="1221.7" cy="251.6" r="1.8" fill="white" opacity="0.85"/>
  <circle cx="1150.9" cy="327.1" r="0.6" fill="white" opacity="0.73"/>
  <circle cx="1288.1" cy="954.1" r="1.1" fill="white" opacity="0.34"/>
  <circle cx="1073.2" cy="798.8" r="1.1" fill="white" opacity="0.76"/>
  <circle cx="1640.1" cy="732.3" r="0.6" fill="white" opacity="0.32"/>
  <circle cx="129.3" cy="803.6" r="0.8" fill="white" opacity="0.80"/>
  <circle cx="1421.9" cy="1051.9" r="1.8" fill="white" opacity="0.71"/>
  <circle cx="853.3" cy="229.4" r="1.9" fill="white" opacity="0.41"/>
  <circle cx="1549.9" cy="814.4" r="0.7" fill="white" opacity="0.79"/>
  <circle cx="789.4" cy="502.8" r="1.6" fill="white" opacity="0.79"/>
  <circle cx="1346.4" cy="999.9" r="0.7" fill="white" opacity="0.38"/>
  <circle cx="627.8" cy="678.3" r="0.9" fill="white" opacity="0.61"/>
  <circle cx="604.4" cy="615.8" r="0.8" fill="white" opacity="0.41"/>
  <circle cx="1376.5" cy="1066.5" r="0.7" fill="white" opacity="0.50"/>
  <circle cx="704.1" cy="739.1" r="0.7" fill="white" opacity="0.48"/>
  <circle cx="1009.3" cy="1053.9" r="1.1" fill="white" opacity="0.76"/>
  <circle cx="1795.7" cy="25.0" r="1.1" fill="white" opacity="0.76"/>
  <circle cx="1911.8" cy="193.6" r="0.8" fill="white" opacity="0.70"/>
  <circle cx="991.6" cy="514.8" r="0.9" fill="white" opacity="0.53"/>
  <circle cx="1525.6" cy="431.6" r="0.7" fill="white" opacity="0.42"/>
  <circle cx="759.3" cy="902.7" r="0.7" fill="white" opacity="0.75"/>
  <circle cx="247.9" cy="388.9" r="0.7" fill="white" opacity="0.77"/>
  <circle cx="1087.0" cy="697.7" r="0.9" fill="white" opacity="0.56"/>
  <circle cx="152.4" cy="5.8" r="0.7" fill="white" opacity="0.37"/>
  <circle cx="295.7" cy="510.4" r="1.7" fill="white" opacity="0.91"/>
  <circle cx="1371.7" cy="177.9" r="0.7" fill="white" opacity="0.81"/>
  <circle cx="1055.3" cy="647.1" r="1.9" fill="white" opacity="0.77"/>
  <circle cx="1631.9" cy="316.9" r="1.3" fill="white" opacity="0.58"/>
  <circle cx="112.9" cy="609.0" r="1.0" fill="white" opacity="0.32"/>
  <circle cx="53.7" cy="630.4" r="0.5" fill="white" opacity="0.51"/>
  <circle cx="603.8" cy="887.6" r="1.0" fill="white" opacity="0.71"/>
  <circle cx="1009.7" cy="111.6" r="1.6" fill="white" opacity="0.57"/>
  <circle cx="597.5" cy="620.0" r="0.8" fill="white" opacity="0.55"/>
  <circle cx="1022.3" cy="996.9" r="0.9" fill="white" opacity="0.69"/>
  <circle cx="1762.1" cy="613.2" r="1.6" fill="white" opacity="0.55"/>
  <circle cx="1114.3" cy="473.2" r="1.6" fill="white" opacity="0.42"/>
  <circle cx="1905.0" cy="918.7" r="1.2" fill="white" opacity="0.94"/>
  <circle cx="1462.3" cy="253.5" r="0.8" fill="white" opacity="0.43"/>
  <circle cx="1866.8" cy="623.0" r="1.9" fill="white" opacity="0.64"/>
  <circle cx="20.7" cy="261.0" r="1.4" fill="white" opacity="0.65"/>
  <circle cx="287.9" cy="995.7" r="0.6" fill="white" opacity="0.48"/>
  <circle cx="254.8" cy="883.7" r="0.6" fill="white" opacity="0.43"/>
  <circle cx="1732.7" cy="831.8" r="2.0" fill="white" opacity="0.64"/>
  <circle cx="811.0" cy="981.0" r="1.1" fill="white" opacity="0.35"/>
  <circle cx="714.7" cy="271.3" r="1.0" fill="white" opacity="0.70"/>
  <circle cx="1063.0" cy="871.4" r="1.2" fill="white" opacity="0.91"/>
  <circle cx="1135.9" cy="199.0" r="0.6" fill="white" opacity="0.43"/>
  <circle cx="1908.8" cy="798.8" r="1.2" fill="white" opacity="0.53"/>
  <circle cx="1872.1" cy="136.0" r="0.9" fill="white" opacity="0.85"/>
  <circle cx="1555.2" cy="522.5" r="1.1" fill="white" opacity="0.94"/>
  <circle cx="545.4" cy="523.9" r="2.0" fill="white" opacity="0.43"/>
  <circle cx="478.1" cy="980.3" r="0.6" fill="white" opacity="0.90"/>
  <circle cx="1250.9" cy="2.8" r="2.0" fill="white" opacity="0.36"/>
  <circle cx="1609.5" cy="760.6" r="1.0" fill="white" opacity="0.69"/>
  <circle cx="1423.8" cy="298.6" r="0.6" fill="white" opacity="0.73"/>
  <circle cx="1911.5" cy="793.1" r="1.8" fill="white" opacity="0.84"/>
  <circle cx="1561.7" cy="434.4" r="1.5" fill="white" opacity="0.62"/>
  <circle cx="1543.2" cy="869.2" r="0.9" fill="white" opacity="0.92"/>
  <circle cx="1831.3" cy="382.9" r="0.8" fill="white" opacity="0.68"/>
  <circle cx="636.4" cy="115.0" r="1.4" fill="white" opacity="0.75"/>
  <circle cx="1599.9" cy="45.8" r="1.9" fill="white" opacity="0.70"/>
  <circle cx="1814.8" cy="999.6" r="1.5" fill="white" opacity="0.52"/>
  <circle cx="732.2" cy="47.0" r="1.8" fill="white" opacity="0.65"/>
  <circle cx="1652.1" cy="980.0" r="1.6" fill="white" opacity="0.89"/>
  <circle cx="1178.0" cy="43.1" r="1.5" fill="white" opacity="0.76"/>
  <circle cx="264.9" cy="339.3" r="0.6" fill="white" opacity="0.97"/>
  <circle cx="1635.1" cy="306.2" r="1.6" fill="white" opacity="0.35"/>
  <circle cx="814.6" cy="136.1" r="2.0" fill="white" opacity="0.42"/>
  <circle cx="309.4" cy="542.6" r="0.8" fill="white" opacity="0.96"/>
  <circle cx="1739.4" cy="284.3" r="1.4" fill="white" opacity="0.95"/>
  <circle cx="941.5" cy="990.3" r="1.9" fill="white" opacity="0.33"/>
  <circle cx="1488.5" cy="818.7" r="0.6" fill="white" opacity="0.65"/>
  <circle cx="400.3" cy="704.5" r="1.3" fill="white" opacity="0.92"/>
  <circle cx="350.3" cy="881.8" r="0.7" fill="white" opacity="0.87"/>
  <circle cx="1040.2" cy="448.8" r="1.7" fill="white" opacity="0.62"/>
  <circle cx="294.8" cy="382.1" r="1.0" fill="white" opacity="0.45"/>
  <circle cx="1609.8" cy="600.2" r="1.8" fill="white" opacity="0.99"/>
  <circle cx="750.0" cy="906.5" r="1.8" fill="white" opacity="0.95"/>
  <circle cx="1279.4" cy="840.1" r="0.6" fill="white" opacity="0.53"/>
  <circle cx="307.2" cy="968.8" r="0.8" fill="white" opacity="0.31"/>
  <circle cx="886.2" cy="1016.6" r="1.8" fill="white" opacity="0.51"/>
  <circle cx="1509.7" cy="944.2" r="1.6" fill="white" opacity="0.69"/>
  <circle cx="1296.5" cy="580.9" r="1.8" fill="white" opacity="0.72"/>
  <circle cx="1410.2" cy="780.6" r="1.2" fill="white" opacity="0.62"/>
  <circle cx="419.8" cy="90.4" r="0.6" fill="white" opacity="0.42"/>
  <circle cx="442.2" cy="391.0" r="0.6" fill="white" opacity="0.97"/>
  <circle cx="480.0" cy="56.0" r="0.7" fill="white" opacity="0.70"/>
  <circle cx="786.6" cy="952.3" r="1.2" fill="white" opacity="0.32"/>
  <circle cx="124.4" cy="616.8" r="1.1" fill="white" opacity="0.70"/>
  <circle cx="1747.7" cy="993.6" r="2.0" fill="white" opacity="0.43"/>
  <circle cx="1419.5" cy="313.5" r="1.3" fill="white" opacity="0.94"/>
  <circle cx="501.8" cy="522.1" r="0.8" fill="white" opacity="0.80"/>
  <circle cx="337.3" cy="882.8" r="1.5" fill="white" opacity="0.69"/>
  <circle cx="1803.4" cy="848.3" r="1.7" fill="white" opacity="0.83"/>
  <circle cx="273.0" cy="226.2" r="0.6" fill="white" opacity="0.98"/>
  <circle cx="1837.4" cy="358.4" r="1.4" fill="white" opacity="0.44"/>
  <circle cx="1659.7" cy="364.9" r="1.1" fill="white" opacity="1.00"/>
  <circle cx="1505.4" cy="636.3" r="0.7" fill="white" opacity="0.39"/>
  <circle cx="93.4" cy="581.7" r="0.9" fill="white" opacity="0.91"/>
  <circle cx="365.3" cy="614.6" r="0.6" fill="white" opacity="0.50"/>
  <circle cx="1143.5" cy="813.2" r="1.3" fill="white" opacity="0.41"/>
  <circle cx="1369.3" cy="578.0" r="1.3" fill="white" opacity="0.92"/>
  <circle cx="634.9" cy="261.9" r="1.4" fill="white" opacity="0.99"/>
  <circle cx="1243.6" cy="1069.3" r="0.6" fill="white" opacity="0.33"/>
  <circle cx="1229.8" cy="38.6" r="1.1" fill="white" opacity="0.65"/>
  <circle cx="616.1" cy="665.4" r="1.5" fill="white" opacity="0.90"/>
  <circle cx="94.7" cy="235.8" r="1.0" fill="white" opacity="0.43"/>
  <circle cx="1869.5" cy="982.3" r="0.6" fill="white" opacity="0.95"/>
  <circle cx="1207.7" cy="413.0" r="0.5" fill="white" opacity="0.73"/>
  <circle cx="1613.6" cy="719.8" r="1.7" fill="white" opacity="0.43"/>
  <circle cx="729.3" cy="779.9" r="0.9" fill="white" opacity="0.58"/>
  <circle cx="382.4" cy="981.0" r="1.5" fill="white" opacity="0.30"/>
  <circle cx="156.9" cy="250.8" r="1.2" fill="white" opacity="0.95"/>
  <circle cx="1069.6" cy="598.4" r="0.5" fill="white" opacity="0.66"/>
  <circle cx="1595.0" cy="758.8" r="1.6" fill="white" opacity="0.98"/>
  <circle cx="839.9" cy="595.8" r="1.4" fill="white" opacity="0.63"/>
  <circle cx="237.6" cy="770.0" r="1.9" fill="white" opacity="0.76"/>
  <circle cx="1215.9" cy="668.0" r="1.4" fill="white" opacity="0.38"/>
  <circle cx="616.5" cy="45.9" r="0.6" fill="white" opacity="0.98"/>
  <circle cx="997.2" cy="460.4" r="1.3" fill="white" opacity="0.33"/>
  <circle cx="848.2" cy="801.3" r="0.8" fill="white" opacity="0.47"/>
  <circle cx="828.1" cy="752.5" r="1.0" fill="white" opacity="0.44"/>
  <circle cx="227.9" cy="958.2" r="0.8" fill="white" opacity="0.46"/>
  <circle cx="452.6" cy="320.3" r="1.7" fill="white" opacity="0.48"/>
  <circle cx="143.3" cy="450.3" r="1.2" fill="white" opacity="0.56"/>
  <circle cx="1072.1" cy="758.1" r="1.0" fill="white" opacity="0.72"/>
  <circle cx="302.5" cy="211.3" r="1.3" fill="white" opacity="0.42"/>
  <circle cx="1444.8" cy="795.7" r="1.2" fill="white" opacity="0.89"/>
  <circle cx="184.6" cy="639.6" r="1.6" fill="white" opacity="0.33"/>
  <circle cx="1592.9" cy="728.1" r="0.9" fill="white" opacity="0.77"/>
  <circle cx="570.6" cy="573.7" r="1.2" fill="white" opacity="0.93"/>
  <circle cx="716.5" cy="332.1" r="1.5" fill="white" opacity="0.34"/>
  <circle cx="243.5" cy="12.1" r="0.9" fill="white" opacity="0.37"/>
  <circle cx="1016.0" cy="581.9" r="1.7" fill="white" opacity="0.86"/>
  <circle cx="210.2" cy="238.1" r="0.7" fill="white" opacity="0.45"/>
  <circle cx="1672.7" cy="627.5" r="0.7" fill="white" opacity="0.52"/>
  <circle cx="1718.1" cy="725.4" r="0.6" fill="white" opacity="0.90"/>
  <circle cx="1391.3" cy="764.8" r="1.4" fill="white" opacity="0.93"/>
  <circle cx="1758.7" cy="139.7" r="1.7" fill="white" opacity="0.61"/>
  <circle cx="1478.7" cy="1037.7" r="0.5" fill="white" opacity="0.60"/>
  <circle cx="1748.5" cy="6.4" r="1.8" fill="white" opacity="0.95"/>
  <circle cx="508.4" cy="320.8" r="0.9" fill="white" opacity="0.38"/>
  <circle cx="1481.9" cy="875.0" r="1.5" fill="white" opacity="0.71"/>
  <circle cx="909.9" cy="757.0" r="1.5" fill="white" opacity="0.33"/>
  <circle cx="1557.1" cy="562.9" r="1.5" fill="white" opacity="0.95"/>
  <circle cx="491.1" cy="584.8" r="0.5" fill="white" opacity="0.43"/>
  <circle cx="1209.9" cy="429.8" r="1.9" fill="white" opacity="0.70"/>
  <circle cx="468.5" cy="591.1" r="1.2" fill="white" opacity="0.70"/>
  <circle cx="9.0" cy="275.9" r="1.9" fill="white" opacity="0.32"/>
  <circle cx="826.0" cy="786.3" r="0.8" fill="white" opacity="0.93"/>
  <circle cx="1202.8" cy="724.8" r="1.4" fill="white" opacity="0.91"/>
  <circle cx="464.1" cy="895.9" r="1.1" fill="white" opacity="0.31"/>
  <circle cx="278.6" cy="476.4" r="1.9" fill="white" opacity="0.39"/>
  <circle cx="951.0" cy="1043.1" r="1.4" fill="white" opacity="0.62"/>
  <circle cx="1414.4" cy="911.8" r="2.0" fill="white" opacity="0.93"/>
  <circle cx="1150.5" cy="540.9" r="1.5" fill="white" opacity="0.43"/>
  <circle cx="1148.9" cy="891.3" r="0.8" fill="white" opacity="0.77"/>
  <circle cx="320.6" cy="274.9" r="0.6" fill="white" opacity="0.85"/>
  <circle cx="1616.2" cy="828.7" r="1.4" fill="white" opacity="0.31"/>
  <circle cx="1419.1" cy="932.8" r="1.8" fill="white" opacity="0.31"/>
  <circle cx="1429.1" cy="289.4" r="1.4" fill="white" opacity="0.48"/>
  <circle cx="1544.2" cy="513.3" r="0.9" fill="white" opacity="0.64"/>
  <circle cx="938.6" cy="938.8" r="1.6" fill="white" opacity="0.63"/>
  <circle cx="837.3" cy="107.7" r="0.9" fill="white" opacity="0.68"/>
  <circle cx="1382.9" cy="351.9" r="0.8" fill="white" opacity="0.76"/>
  <circle cx="93.2" cy="788.4" r="2.0" fill="white" opacity="0.78"/>
  <circle cx="1478.8" cy="960.0" r="1.3" fill="white" opacity="0.68"/>
  <circle cx="204.0" cy="606.8" r="2.0" fill="white" opacity="0.72"/>
  <circle cx="1696.7" cy="179.3" r="0.7" fill="white" opacity="0.57"/>
  <circle cx="917.0" cy="434.8" r="2.0" fill="white" opacity="0.30"/>
  <circle cx="866.9" cy="216.6" r="0.8" fill="white" opacity="0.46"/>
  <circle cx="1526.4" cy="696.7" r="1.4" fill="white" opacity="0.87"/>
  <circle cx="1024.6" cy="677.6" r="0.6" fill="white" opacity="0.73"/>
  <circle cx="1527.3" cy="442.2" r="1.8" fill="white" opacity="0.96"/>
  <circle cx="1009.0" cy="544.6" r="1.5" fill="white" opacity="0.66"/>
  <circle cx="513.1" cy="317.8" r="1.5" fill="white" opacity="0.50"/>
</svg>